<svg width="115" height="115" fill="none" xmlns="http://www.w3.org/2000/svg"><g clip-path="url(#clip0)"><path d="M57 50c-15 1-27 13-27 28v36l3 1 22-16h5l22 16 3-1V77c0-14-13-27-28-27z" fill="url(#paint0_linear)"/><path d="M85 114V77a27 27 0 00-54-5l27 26 2 1 22 16 3-1z" fill="url(#paint1_linear)"/><path d="M42 55v53l-6 4V61l6-6z" fill="url(#paint2_linear)"/><path d="M79 61v51l-6-4V55l6 6z" fill="url(#paint3_linear)"/><path d="M58 50v48l2 1 22 16 3-1V77c0-14-13-27-27-27z" fill="url(#paint4_linear)"/><path d="M82 110L60 95h-5l-22 15c-1 1-3 0-3-1v5l3 1 22-16h5l22 16 3-1v-5c0 1-2 2-3 1z" fill="url(#paint5_linear)"/><path d="M42 55v28l-6-6V61a54 54 0 014-4 15 15 0 011-1h1v-1z" fill="url(#paint6_linear)"/><path d="M79 61v51l-6-4V55l6 6z" fill="url(#paint7_linear)"/><path d="M98 36C98 16 80 0 58 0 35 0 17 16 17 36v9c0 20 18 36 41 36 22 0 40-16 40-36v-9z" fill="url(#paint8_linear)"/><path d="M98 36C98 16 80 0 58 0 35 0 17 16 17 36v9c0 20 18 36 41 36 22 0 40-16 40-36v-9z" fill="url(#paint9_linear)"/><path d="M91 16C83 6 71 0 58 0 44 0 32 6 24 16v49c8 9 20 16 34 16 13 0 25-7 33-16V16z" fill="url(#paint10_linear)"/><path d="M34 74c6 4 15 7 24 7 8 0 17-3 23-7V7c-6-4-15-7-23-7-9 0-18 3-24 7v67z" fill="url(#paint11_linear)"/><path d="M48 80a45 45 0 0019 0V1a45 45 0 00-19 0v79z" fill="url(#paint12_linear)"/><path d="M58 72c22 0 40-16 40-36S80 0 58 0C35 0 17 16 17 36s18 36 41 36z" fill="url(#paint13_linear)"/><path d="M58 68c19 0 35-14 35-32S77 4 58 4C38 4 22 18 22 36s16 32 36 32z" fill="url(#paint14_linear)"/><path d="M58 65c17 0 32-13 32-29S75 7 58 7C40 7 25 20 25 36s15 29 33 29z" fill="url(#paint15_linear)"/><path d="M97 43L83 28l-2-1-7-1-15-15-1-1-2 1-7 14-15 2-2 1 1 2 11 11-3 15 1 1 15 15h1c19 0 36-13 39-29z" fill="url(#paint16_linear)"/><path d="M83 28l-2-1-15-2-7-14-1-1-2 1-7 14-15 2-2 1 1 2 11 11-3 15 1 1 2 1 14-7 13 7 2-1 1-1-3-15 11-11 1-2zm-25 8h-1 1z" fill="url(#paint17_linear)"/><path d="M57 36l-13 5-11-11-1-2 25 8z" fill="url(#paint18_linear)"/><path d="M57 36L42 57l-1-1 3-15 13-5z" fill="url(#paint19_linear)"/><path d="M73 57l-2 1-13-7V36l15 21z" fill="url(#paint20_linear)"/><path d="M58 36v15l-14 7-2-1 15-21h1z" fill="url(#paint21_linear)"/><path d="M73 57L58 36l13 5 3 15-1 1z" fill="url(#paint22_linear)"/><path d="M58 36h-1l-25-8 2-1 15-2 9 11z" fill="url(#paint23_linear)"/><path d="M66 25l-8 11V10l1 1 7 14z" fill="url(#paint24_linear)"/><path d="M58 10v26l-9-11 7-14 2-1z" fill="url(#paint25_linear)"/><path d="M83 28l-25 8 8-11 15 2 2 1z" fill="url(#paint26_linear)"/><path d="M82 30L71 41l-13-5 25-8-1 2z" fill="url(#paint27_linear)"/><path d="M78 29l-1-1-13-2-5-11-1-1-2 1-5 11-13 2-1 1v2l9 8-2 13 1 1h1l12-5 11 5h1l1-1-2-13 9-8v-2zm-20 7h-1 1z" fill="url(#paint28_linear)"/><path d="M58 62c16 0 28-12 28-26S74 10 58 10c-17 0-29 12-29 26s12 26 29 26z" fill="url(#paint29_linear)"/></g><defs><linearGradient id="paint0_linear" x1="42.4" y1="71.5" x2="84.5" y2="126.3" gradientUnits="userSpaceOnUse"><stop stop-color="#4A98F7"/><stop offset="1" stop-color="#0469BC"/></linearGradient><linearGradient id="paint1_linear" x1="59.5" y1="97.3" x2="57.6" y2="70.8" gradientUnits="userSpaceOnUse"><stop stop-color="#0469BC" stop-opacity="0"/><stop offset="1" stop-color="#0469BC"/></linearGradient><linearGradient id="paint2_linear" x1="31" y1="73.3" x2="55.3" y2="104.9" gradientUnits="userSpaceOnUse"><stop stop-color="#F9F7FC"/><stop offset="1" stop-color="#F0DDFC"/></linearGradient><linearGradient id="paint3_linear" x1="66" y1="71.7" x2="94.2" y2="108.4" gradientUnits="userSpaceOnUse"><stop stop-color="#F9F7FC"/><stop offset="1" stop-color="#F0DDFC"/></linearGradient><linearGradient id="paint4_linear" x1="68.7" y1="79.4" x2="23.2" y2="46.3" gradientUnits="userSpaceOnUse"><stop stop-color="#18CFFC" stop-opacity="0"/><stop offset="1" stop-color="#65E1DC"/></linearGradient><linearGradient id="paint5_linear" x1="57.5" y1="109.6" x2="57.5" y2="71.1" gradientUnits="userSpaceOnUse"><stop stop-color="#0469BC" stop-opacity="0"/><stop offset="1" stop-color="#0469BC"/></linearGradient><linearGradient id="paint6_linear" x1="39.1" y1="97.7" x2="39.1" y2="69.3" gradientUnits="userSpaceOnUse"><stop stop-color="#F0DDFC" stop-opacity="0"/><stop offset=".3" stop-color="#C8B7E0" stop-opacity=".3"/><stop offset=".6" stop-color="#A595C8" stop-opacity=".6"/><stop offset=".8" stop-color="#8F81B8" stop-opacity=".8"/><stop offset="1" stop-color="#8779B3"/></linearGradient><linearGradient id="paint7_linear" x1="75.9" y1="97.7" x2="75.9" y2="69.3" gradientUnits="userSpaceOnUse"><stop stop-color="#F0DDFC" stop-opacity="0"/><stop offset=".3" stop-color="#C8B7E0" stop-opacity=".3"/><stop offset=".6" stop-color="#A595C8" stop-opacity=".6"/><stop offset=".8" stop-color="#8F81B8" stop-opacity=".8"/><stop offset="1" stop-color="#8779B3"/></linearGradient><linearGradient id="paint8_linear" x1="17.2" y1="40.3" x2="97.8" y2="40.3" gradientUnits="userSpaceOnUse"><stop stop-color="#FFDA45"/><stop offset="1" stop-color="#FFA425"/></linearGradient><linearGradient id="paint9_linear" x1="75.6" y1="46.2" x2="104.4" y2="55.5" gradientUnits="userSpaceOnUse"><stop stop-color="#FFDA45" stop-opacity="0"/><stop offset=".5" stop-color="#D9874F" stop-opacity=".5"/><stop offset="1" stop-color="#B53759"/></linearGradient><linearGradient id="paint10_linear" x1="53.7" y1="32.9" x2="86.8" y2="96.7" gradientUnits="userSpaceOnUse"><stop stop-color="#FFDA45" stop-opacity="0"/><stop offset=".5" stop-color="#D9874F" stop-opacity=".5"/><stop offset="1" stop-color="#B53759"/></linearGradient><linearGradient id="paint11_linear" x1="56.3" y1="52.9" x2="52.3" y2="92.6" gradientUnits="userSpaceOnUse"><stop stop-color="#FFDA45" stop-opacity="0"/><stop offset=".5" stop-color="#D9874F" stop-opacity=".5"/><stop offset="1" stop-color="#B53759"/></linearGradient><linearGradient id="paint12_linear" x1="49.5" y1="54.9" x2="37.4" y2="77.1" gradientUnits="userSpaceOnUse"><stop stop-color="#FFDA45" stop-opacity="0"/><stop offset=".5" stop-color="#D9874F" stop-opacity=".5"/><stop offset="1" stop-color="#B53759"/></linearGradient><linearGradient id="paint13_linear" x1="17.2" y1="36.1" x2="97.8" y2="36.1" gradientUnits="userSpaceOnUse"><stop stop-color="#FFDA45"/><stop offset="1" stop-color="#FFA425"/></linearGradient><linearGradient id="paint14_linear" x1="93.3" y1="36.1" x2="21.7" y2="36.1" gradientUnits="userSpaceOnUse"><stop stop-color="#FFDA45"/><stop offset="1" stop-color="#FFA425"/></linearGradient><linearGradient id="paint15_linear" x1="25.1" y1="36.1" x2="89.9" y2="36.1" gradientUnits="userSpaceOnUse"><stop stop-color="#FFDA45"/><stop offset="1" stop-color="#FFA425"/></linearGradient><linearGradient id="paint16_linear" x1="100.6" y1="76.6" x2="19.5" y2="6.9" gradientUnits="userSpaceOnUse"><stop stop-color="#FFDA45" stop-opacity="0"/><stop offset=".5" stop-color="#D9874F" stop-opacity=".5"/><stop offset="1" stop-color="#B53759"/></linearGradient><linearGradient id="paint17_linear" x1="47.7" y1="27.6" x2="85.9" y2="67.1" gradientUnits="userSpaceOnUse"><stop stop-color="#FFDA45"/><stop offset="1" stop-color="#FCB37E"/></linearGradient><linearGradient id="paint18_linear" x1="41.9" y1="29.7" x2="65.6" y2="55" gradientUnits="userSpaceOnUse"><stop stop-color="#FCB37E" stop-opacity="0"/><stop offset="1" stop-color="#FF7044"/></linearGradient><linearGradient id="paint19_linear" x1="41.2" y1="46.8" x2="57.5" y2="46.8" gradientUnits="userSpaceOnUse"><stop stop-color="#FFDA45"/><stop offset="1" stop-color="#FCB37E"/></linearGradient><linearGradient id="paint20_linear" x1="53.6" y1="39.1" x2="81.4" y2="70.4" gradientUnits="userSpaceOnUse"><stop stop-color="#FCB37E" stop-opacity="0"/><stop offset="1" stop-color="#FF7044"/></linearGradient><linearGradient id="paint21_linear" x1="37.7" y1="47.4" x2="73.4" y2="46.2" gradientUnits="userSpaceOnUse"><stop stop-color="#FCB37E" stop-opacity="0"/><stop offset="1" stop-color="#FF7044"/></linearGradient><linearGradient id="paint22_linear" x1="69.6" y1="61.8" x2="60.5" y2="21.2" gradientUnits="userSpaceOnUse"><stop stop-color="#FFDA45"/><stop offset="1" stop-color="#FCB37E"/></linearGradient><linearGradient id="paint23_linear" x1="43.7" y1="27" x2="49.2" y2="50.6" gradientUnits="userSpaceOnUse"><stop stop-color="#FFDA45"/><stop offset="1" stop-color="#FCB37E"/></linearGradient><linearGradient id="paint24_linear" x1="67" y1="26.7" x2="33.2" y2="13.3" gradientUnits="userSpaceOnUse"><stop stop-color="#FCB37E" stop-opacity="0"/><stop offset="1" stop-color="#FF7044"/></linearGradient><linearGradient id="paint25_linear" x1="52.3" y1="15.6" x2="69.7" y2="45.4" gradientUnits="userSpaceOnUse"><stop stop-color="#FCB37E" stop-opacity="0"/><stop offset="1" stop-color="#FF7044"/></linearGradient><linearGradient id="paint26_linear" x1="73.9" y1="26.9" x2="41.5" y2="55.5" gradientUnits="userSpaceOnUse"><stop stop-color="#FCB37E" stop-opacity="0"/><stop offset="1" stop-color="#FF7044"/></linearGradient><linearGradient id="paint27_linear" x1="68.1" y1="38.5" x2="79.3" y2="6.1" gradientUnits="userSpaceOnUse"><stop stop-color="#FCB37E" stop-opacity="0"/><stop offset="1" stop-color="#FF7044"/></linearGradient><linearGradient id="paint28_linear" x1="58.2" y1="36.5" x2="47.2" y2="20.7" gradientUnits="userSpaceOnUse"><stop stop-color="#FFDA45" stop-opacity="0"/><stop offset="1" stop-color="#FFEE83"/></linearGradient><linearGradient id="paint29_linear" x1="55.5" y1="33.3" x2="34.2" y2="3.7" gradientUnits="userSpaceOnUse"><stop stop-color="#FFDA45" stop-opacity="0"/><stop offset="1" stop-color="#FCEE21"/></linearGradient><clipPath id="clip0"><path fill="#fff" d="M0 0h115v115H0z"/></clipPath></defs></svg>