<svg width="115" height="115" fill="none" xmlns="http://www.w3.org/2000/svg"><path d="M108 106H7c-4 0-7-4-7-7V28c0-4 3-7 7-7h101c4 0 7 3 7 7v71c0 3-3 7-7 7z" fill="url(#paint0_linear)"/><path d="M6 59l47 47h55c4 0 7-4 7-7V28a7 7 0 00-1-4h-1v-1h-1v-1h-1a7 7 0 00-1 0v-1h-1H7c-4 0-7 3-7 7v18c0 5 2 9 6 13z" fill="url(#paint1_linear)"/><path d="M38 24h-2c-2 0-3-1-3-3v-2c0-1 1-2 3-2h2l2 2v2c0 2-1 3-2 3z" fill="url(#paint2_linear)"/><path d="M79 24h-2c-1 0-2-1-2-3v-2l2-2h2c2 0 3 1 3 2v2c0 2-1 3-3 3z" fill="url(#paint3_linear)"/><path d="M108 21H7c-4 0-7 3-7 7v18c0 9 7 17 17 17h81c10 0 17-8 17-17V28c0-4-3-7-7-7z" fill="url(#paint4_linear)"/><path d="M38 58l-3-1h-9c-2 0-4 1-4 3v4l1 3 15 14 3 1h9c2 0 3-1 3-3v-4l-1-3-14-14z" fill="url(#paint5_linear)"/><path d="M33 64l5-2 1-2c0-2-2-3-4-3h-9c-2 0-4 1-4 3l1 2 5 2h5z" fill="url(#paint6_linear)"/><path d="M35 68h-9c-2 0-4-2-4-4v-4c0-2 2-3 4-3h9c2 0 4 1 4 3v4c0 2-2 4-4 4z" fill="url(#paint7_linear)"/><path d="M23 61l6 7h6c2 0 4-2 4-4v-4l-1-2-1-1h-1-10c-2 0-4 1-4 3l1 1z" fill="url(#paint8_linear)"/><path d="M33 64l5-2 1-2c0-2-2-3-4-3h-9c-2 0-4 1-4 3l1 2 5 2h5z" fill="url(#paint9_linear)"/><path d="M92 58l-3-1h-9c-2 0-4 1-4 3v4l1 3 15 14 3 1h9c2 0 3-1 3-3v-4l-1-3-14-14z" fill="url(#paint10_linear)"/><path d="M87 64l5-2 1-2c0-2-2-3-4-3h-9c-2 0-4 1-4 3l1 2 5 2h5z" fill="url(#paint11_linear)"/><path d="M89 68h-9c-2 0-4-2-4-4v-4c0-2 2-3 4-3h9c2 0 4 1 4 3v4c0 2-2 4-4 4z" fill="url(#paint12_linear)"/><path d="M77 61l6 7h6c2 0 4-2 4-4v-4l-1-2-1-1h-1-10c-2 0-4 1-4 3l1 1z" fill="url(#paint13_linear)"/><path d="M87 64l5-2 1-2c0-2-2-3-4-3h-9c-2 0-4 1-4 3l1 2 5 2h5z" fill="url(#paint14_linear)"/><path d="M0 81v18c0 3 3 7 7 7h101c4 0 7-4 7-7V81H0z" fill="url(#paint15_linear)"/><path d="M77 20h-1a58 58 0 00-37 0 4 4 0 01-2-7c6-2 13-4 20-4 8 0 15 2 21 4a4 4 0 01-1 7z" fill="url(#paint16_linear)"/><path d="M70 92H45v3l11 11h27L70 92z" fill="url(#paint17_linear)"/><path d="M45 92v3h25v-3H45z" fill="url(#paint18_linear)"/><defs><linearGradient id="paint0_linear" x1="7.9" y1="63.4" x2="136.5" y2="63.4" gradientUnits="userSpaceOnUse"><stop stop-color="#4D4D4D"/><stop offset="1" stop-color="#333"/></linearGradient><linearGradient id="paint1_linear" x1="57.5" y1="88.9" x2="57.5" y2="49.7" gradientUnits="userSpaceOnUse"><stop stop-color="#4D4D4D" stop-opacity="0"/><stop offset="1"/></linearGradient><linearGradient id="paint2_linear" x1="16.1" y1="31.3" x2="8.2" y2="35.6" gradientUnits="userSpaceOnUse"><stop stop-color="#4D4D4D"/><stop offset="1" stop-color="#333"/></linearGradient><linearGradient id="paint3_linear" x1="25.4" y1="48.6" x2="17.5" y2="52.9" gradientUnits="userSpaceOnUse"><stop stop-color="#4D4D4D"/><stop offset="1" stop-color="#333"/></linearGradient><linearGradient id="paint4_linear" x1="57.5" y1="37.2" x2="49.6" y2="85.1" gradientUnits="userSpaceOnUse"><stop stop-color="#4D4D4D"/><stop offset="1" stop-color="#333"/></linearGradient><linearGradient id="paint5_linear" x1="49.7" y1="81.4" x2="20.7" y2="52.5" gradientUnits="userSpaceOnUse"><stop stop-color="#4D4D4D" stop-opacity="0"/><stop offset="1"/></linearGradient><linearGradient id="paint6_linear" x1="30.5" y1="58.6" x2="30.5" y2="66" gradientUnits="userSpaceOnUse"><stop stop-color="#FCC344"/><stop offset="1" stop-color="#D48000"/></linearGradient><linearGradient id="paint7_linear" x1="30.5" y1="64.8" x2="30.5" y2="68.5" gradientUnits="userSpaceOnUse"><stop stop-color="#FCC344"/><stop offset="1" stop-color="#D48000"/></linearGradient><linearGradient id="paint8_linear" x1="30.5" y1="67.7" x2="30.5" y2="62.2" gradientUnits="userSpaceOnUse"><stop stop-color="#D48000" stop-opacity="0"/><stop offset="1" stop-color="#D48000"/></linearGradient><linearGradient id="paint9_linear" x1="30.5" y1="60.2" x2="30.5" y2="64.7" gradientUnits="userSpaceOnUse"><stop stop-color="#FCC344"/><stop offset="1" stop-color="#D48000"/></linearGradient><linearGradient id="paint10_linear" x1="103.7" y1="81.4" x2="74.7" y2="52.5" gradientUnits="userSpaceOnUse"><stop stop-color="#4D4D4D" stop-opacity="0"/><stop offset="1"/></linearGradient><linearGradient id="paint11_linear" x1="84.5" y1="58.6" x2="84.5" y2="66" gradientUnits="userSpaceOnUse"><stop stop-color="#FCC344"/><stop offset="1" stop-color="#D48000"/></linearGradient><linearGradient id="paint12_linear" x1="84.5" y1="64.8" x2="84.5" y2="68.5" gradientUnits="userSpaceOnUse"><stop stop-color="#FCC344"/><stop offset="1" stop-color="#D48000"/></linearGradient><linearGradient id="paint13_linear" x1="84.5" y1="67.7" x2="84.5" y2="62.2" gradientUnits="userSpaceOnUse"><stop stop-color="#D48000" stop-opacity="0"/><stop offset="1" stop-color="#D48000"/></linearGradient><linearGradient id="paint14_linear" x1="84.5" y1="60.2" x2="84.5" y2="64.7" gradientUnits="userSpaceOnUse"><stop stop-color="#FCC344"/><stop offset="1" stop-color="#D48000"/></linearGradient><linearGradient id="paint15_linear" x1="57.5" y1="89.9" x2="57.5" y2="109.4" gradientUnits="userSpaceOnUse"><stop stop-color="#4D4D4D" stop-opacity="0"/><stop offset="1"/></linearGradient><linearGradient id="paint16_linear" x1="57.5" y1="12.1" x2="57.5" y2="22.3" gradientUnits="userSpaceOnUse"><stop stop-color="#FCC344"/><stop offset="1" stop-color="#D48000"/></linearGradient><linearGradient id="paint17_linear" x1="64.2" y1="105.1" x2="64.2" y2="86.1" gradientUnits="userSpaceOnUse"><stop stop-color="#1A1A1A" stop-opacity="0"/><stop offset="1"/></linearGradient><linearGradient id="paint18_linear" x1="57.5" y1="92" x2="57.5" y2="95.5" gradientUnits="userSpaceOnUse"><stop stop-color="#FCC344"/><stop offset="1" stop-color="#D48000"/></linearGradient></defs></svg>