<svg width="115" height="115" fill="none" xmlns="http://www.w3.org/2000/svg"><g clip-path="url(#clip0)"><path d="M112 96H3c-2 0-3-1-3-3V37c0-2 1-4 3-4h109c2 0 3 2 3 4v56c0 2-1 3-3 3z" fill="url(#paint0_linear)"/><path d="M109 94H6c-2 0-3-1-3-3V39c0-2 1-3 3-3h103c2 0 3 1 3 3v52c0 2-1 3-3 3z" fill="url(#paint1_linear)"/><path d="M105 53a10 10 0 01-9-11l-2-2H21l-2 2a10 10 0 01-9 11l-2 1v21l2 2a10 10 0 019 10l2 2h73l2-2a10 10 0 019-10l2-2V54l-2-1z" fill="url(#paint2_linear)"/><path d="M58 87a22 22 0 10-1-44 22 22 0 001 44z" fill="url(#paint3_linear)"/><path d="M66 52l-2-2h-3v-1l-2-1-1-1-1 1v2l-6 2c-2 1-2 3-2 6v2l1 2 1 1 6 6v7l-4-1-2-2h-3v2l1 3 19 18h43L66 52z" fill="url(#paint4_linear)"/><path d="M48 75v-2h3l2 2 4 1V66a64 64 0 01-4-2l-2-1-1-1-1-2v-2c0-3 0-5 2-6l6-2v-2l1-1 1 1v1l5 1c2 1 2 2 2 3v1l-2 1-1-1-4-1v9l3 1 3 2 1 3 1 3-2 6c-1 2-3 3-6 3v2a1 1 0 01-2 0v-2l-7-1-2-4zm5-18l1 3 3 1v-8c-3 1-4 2-4 4zm6 19c3-1 4-2 4-4l-1-3-3-2v9z" fill="url(#paint5_linear)"/><path d="M24 67H13l-1-1v-3l1-1h11l1 1v3l-1 1zM31 67h-2l-1-1v-3l1-1h2l1 1v3l-1 1zM92 67h-8l-1-1v-3l1-1h8v5zM102 67h-6l-1-1v-3l1-1h6l1 1v3l-1 1z" fill="#4AB272"/><path d="M39 33H7l-1 1c-2 2-1 4 1 5l5 5v17l36 35h54L39 33z" fill="url(#paint6_linear)"/><path d="M34 43v17l-2 1H14l-2-1V43c0-2-2-3-4-3s-4-4-2-6l15-15h4l15 15c2 2 0 5-2 5s-4 2-4 4z" fill="url(#paint7_linear)"/><path d="M14 58V43c0-3-2-6-6-6v-1l15-15 15 15v1c-4 0-6 3-6 6v15H14z" fill="url(#paint8_linear)"/><path d="M32 61l2-1V43c0-2 2-4 4-4s4-3 2-5L25 19h-2v42h9z" fill="url(#paint9_linear)"/></g><defs><linearGradient id="paint0_linear" x1="51.5" y1="49.6" x2="83.7" y2="131.2" gradientUnits="userSpaceOnUse"><stop stop-color="#4AB272"/><stop offset="1" stop-color="#077565"/></linearGradient><linearGradient id="paint1_linear" x1="62.3" y1="75.3" x2=".3" y2="-58.1" gradientUnits="userSpaceOnUse"><stop stop-color="#92F37F" stop-opacity="0"/><stop offset="1" stop-color="#FFEE83"/></linearGradient><linearGradient id="paint2_linear" x1="53.5" y1="52.8" x2="71.5" y2="107.3" gradientUnits="userSpaceOnUse"><stop stop-color="#92F37F"/><stop offset="1" stop-color="#4AB272"/></linearGradient><linearGradient id="paint3_linear" x1="74.4" y1="75.8" x2="8.2" y2="32.9" gradientUnits="userSpaceOnUse"><stop stop-color="#92F37F"/><stop offset="1" stop-color="#4AB272"/></linearGradient><linearGradient id="paint4_linear" x1="73" y1="76.2" x2="26.5" y2="55.6" gradientUnits="userSpaceOnUse"><stop stop-color="#4AB272" stop-opacity="0"/><stop offset="1" stop-color="#009245"/></linearGradient><linearGradient id="paint5_linear" x1="55.4" y1="63" x2="73.4" y2="75.1" gradientUnits="userSpaceOnUse"><stop stop-color="#4AB272"/><stop offset="1" stop-color="#077565"/></linearGradient><linearGradient id="paint6_linear" x1="51.9" y1="70" x2="19" y2="14" gradientUnits="userSpaceOnUse"><stop stop-color="#4AB272" stop-opacity="0"/><stop offset="1" stop-color="#009245"/></linearGradient><linearGradient id="paint7_linear" x1="13.9" y1="36.8" x2="39.8" y2="55.5" gradientUnits="userSpaceOnUse"><stop stop-color="#FFDA45"/><stop offset="1" stop-color="#FFA425"/></linearGradient><linearGradient id="paint8_linear" x1="27.4" y1="44" x2="-2.1" y2="30.1" gradientUnits="userSpaceOnUse"><stop stop-color="#FFDA45" stop-opacity="0"/><stop offset="1" stop-color="#FFEE83"/></linearGradient><linearGradient id="paint9_linear" x1="30.7" y1="36.4" x2="3.2" y2="77.4" gradientUnits="userSpaceOnUse"><stop stop-color="#FFDA45" stop-opacity="0"/><stop offset="1" stop-color="#B53759"/></linearGradient><clipPath id="clip0"><path fill="#fff" d="M0 0h115v115H0z"/></clipPath></defs></svg>